# xmcd
#
# Track frame offsets: 
#        150
#        13323
#        25999
#        38531
#        51861
#        64889
#        78539
#        90905
#        102682
#        112528
#        125004
#        136992
#        149373
#        161968
#        173965
#        187568
#        201120
#        212928
#        224980
#        236063
#        248541
#        258561
#        271095
#        282711
#        294043
#        304988
#        315979
#        327771
#
# Disc length: 4526 seconds
#
# Revision: 2
# Processed by: cddbd v1.5.2PL0 Copyright (c) Steve Scherf et al.
# Submitted via: ExactAudioCopyFreeDBPlugin 1.0
#
DISCID=a111ac1c
DTITLE=The "5" Royales - Soul and Swagger:  The Complete "5" Royales (19
DTITLE=51-1967)
DYEAR=2014
DGENRE=Rhythm and Blues
TTITLE0=Monkey Hips And Rice
TTITLE1=Devil With The Rest
TTITLE2=School Girl
TTITLE3=One Mistake
TTITLE4=With All Your Heart
TTITLE5=With All Your Heart (alt take 3)
TTITLE6=Six O'Clock In The Morning
TTITLE7=See Hear and Know Nothing
TTITLE8=You Didn't Learn It At Home
TTITLE9=Every Dog Has His Day
TTITLE10=Mohawk Squaw
TTITLE11=How I Wonder
TTITLE12=I Need Your Lovin' Baby
TTITLE13=When I Get Like This
TTITLE14=Women About To Make Me Go Crazy
TTITLE15=Do Unto You
TTITLE16=Someone Made You For Me
TTITLE17=I Ain't Getting Caught
TTITLE18=Right Around The Corner
TTITLE19=When You Walked Through The Door
TTITLE20=I Could Love You
TTITLE21=My Wants For Love
TTITLE22=Come On And Save Me
TTITLE23=Come On And Save Me (alt take 2)
TTITLE24=Come On And Save Me (alt take 3)
TTITLE25=Get Something Out Of It
TTITLE26=Get Something Out Of It (alt take 2)
TTITLE27=Get Something Out Of It (alt take 4)
EXTD=
EXTT0=
EXTT1=
EXTT2=
EXTT3=
EXTT4=
EXTT5=
EXTT6=
EXTT7=
EXTT8=
EXTT9=
EXTT10=
EXTT11=
EXTT12=
EXTT13=
EXTT14=
EXTT15=
EXTT16=
EXTT17=
EXTT18=
EXTT19=
EXTT20=
EXTT21=
EXTT22=
EXTT23=
EXTT24=
EXTT25=
EXTT26=
EXTT27=
PLAYORDER=
